<svg width="16" height="16" viewBox="0 0 16 16" fill="none" xmlns="http://www.w3.org/2000/svg">
<path d="M3.58143 14.0002H0.264286V4.6533H3.58143V14.0002ZM1.92107 3.3783C0.860357 3.3783 0 2.60955 0 1.68143C7.59214e-09 1.23561 0.202398 0.80806 0.562669 0.492823C0.92294 0.177587 1.41157 0.000488281 1.92107 0.000488281C2.43057 0.000488281 2.9192 0.177587 3.27947 0.492823C3.63974 0.80806 3.84214 1.23561 3.84214 1.68143C3.84214 2.60955 2.98143 3.3783 1.92107 3.3783ZM15.9964 14.0002H12.6864V9.45018C12.6864 8.3658 12.6614 6.97518 10.9618 6.97518C9.23714 6.97518 8.97286 8.1533 8.97286 9.37205V14.0002H5.65929V4.6533H8.84071V5.9283H8.88714C9.33 5.19393 10.4118 4.41893 12.0257 4.41893C15.3829 4.41893 16 6.3533 16 8.8658V14.0002H15.9964Z" fill="#494949"/>
</svg>
